<svg xmlns:xlink="http://www.w3.org/1999/xlink" width="31.950799999999997ex" height="8.615599999999999ex" viewBox="0 -1817.6 9826.1 2649.6" role="img" focusable="false" xmlns="http://www.w3.org/2000/svg" style="vertical-align: -1.932ex;"><defs><path stroke-width="1" id="E21-MJMAIN-74" d="M27 422Q80 426 109 478T141 600V615H181V431H316V385H181V241Q182 116 182 100T189 68Q203 29 238 29Q282 29 292 100Q293 108 293 146V181H333V146V134Q333 57 291 17Q264 -10 221 -10Q187 -10 162 2T124 33T105 68T98 100Q97 107 97 248V385H18V422H27Z"></path><path stroke-width="1" id="E21-MJMAIN-61" d="M137 305T115 305T78 320T63 359Q63 394 97 421T218 448Q291 448 336 416T396 340Q401 326 401 309T402 194V124Q402 76 407 58T428 40Q443 40 448 56T453 109V145H493V106Q492 66 490 59Q481 29 455 12T400 -6T353 12T329 54V58L327 55Q325 52 322 49T314 40T302 29T287 17T269 6T247 -2T221 -8T190 -11Q130 -11 82 20T34 107Q34 128 41 147T68 188T116 225T194 253T304 268H318V290Q318 324 312 340Q290 411 215 411Q197 411 181 410T156 406T148 403Q170 388 170 359Q170 334 154 320ZM126 106Q126 75 150 51T209 26Q247 26 276 49T315 109Q317 116 318 175Q318 233 317 233Q309 233 296 232T251 223T193 203T147 166T126 106Z"></path><path stroke-width="1" id="E21-MJMAIN-6E" d="M41 46H55Q94 46 102 60V68Q102 77 102 91T102 122T103 161T103 203Q103 234 103 269T102 328V351Q99 370 88 376T43 385H25V408Q25 431 27 431L37 432Q47 433 65 434T102 436Q119 437 138 438T167 441T178 442H181V402Q181 364 182 364T187 369T199 384T218 402T247 421T285 437Q305 442 336 442Q450 438 463 329Q464 322 464 190V104Q464 66 466 59T477 49Q498 46 526 46H542V0H534L510 1Q487 2 460 2T422 3Q319 3 310 0H302V46H318Q379 46 379 62Q380 64 380 200Q379 335 378 343Q372 371 358 385T334 402T308 404Q263 404 229 370Q202 343 195 315T187 232V168V108Q187 78 188 68T191 55T200 49Q221 46 249 46H265V0H257L234 1Q210 2 183 2T145 3Q42 3 33 0H25V46H41Z"></path><path stroke-width="1" id="E21-MJMATHI-3B8" d="M35 200Q35 302 74 415T180 610T319 704Q320 704 327 704T339 705Q393 701 423 656Q462 596 462 495Q462 380 417 261T302 66T168 -10H161Q125 -10 99 10T60 63T41 130T35 200ZM383 566Q383 668 330 668Q294 668 260 623T204 521T170 421T157 371Q206 370 254 370L351 371Q352 372 359 404T375 484T383 566ZM113 132Q113 26 166 26Q181 26 198 36T239 74T287 161T335 307L340 324H145Q145 321 136 286T120 208T113 132Z"></path><path stroke-width="1" id="E21-MJMAIN-3D" d="M56 347Q56 360 70 367H707Q722 359 722 347Q722 336 708 328L390 327H72Q56 332 56 347ZM56 153Q56 168 72 173H708Q722 163 722 153Q722 140 707 133H70Q56 140 56 153Z"></path><path stroke-width="1" id="E21-MJMAIN-7C" d="M139 -249H137Q125 -249 119 -235V251L120 737Q130 750 139 750Q152 750 159 735V-235Q151 -249 141 -249H139Z"></path><path stroke-width="1" id="E21-MJMAIN-32" d="M109 429Q82 429 66 447T50 491Q50 562 103 614T235 666Q326 666 387 610T449 465Q449 422 429 383T381 315T301 241Q265 210 201 149L142 93L218 92Q375 92 385 97Q392 99 409 186V189H449V186Q448 183 436 95T421 3V0H50V19V31Q50 38 56 46T86 81Q115 113 136 137Q145 147 170 174T204 211T233 244T261 278T284 308T305 340T320 369T333 401T340 431T343 464Q343 527 309 573T212 619Q179 619 154 602T119 569T109 550Q109 549 114 549Q132 549 151 535T170 489Q170 464 154 447T109 429Z"></path><path stroke-width="1" id="E21-MJMAIN-28" d="M94 250Q94 319 104 381T127 488T164 576T202 643T244 695T277 729T302 750H315H319Q333 750 333 741Q333 738 316 720T275 667T226 581T184 443T167 250T184 58T225 -81T274 -167T316 -220T333 -241Q333 -250 318 -250H315H302L274 -226Q180 -141 137 -14T94 250Z"></path><path stroke-width="1" id="E21-MJMATHI-68" d="M137 683Q138 683 209 688T282 694Q294 694 294 685Q294 674 258 534Q220 386 220 383Q220 381 227 388Q288 442 357 442Q411 442 444 415T478 336Q478 285 440 178T402 50Q403 36 407 31T422 26Q450 26 474 56T513 138Q516 149 519 151T535 153Q555 153 555 145Q555 144 551 130Q535 71 500 33Q466 -10 419 -10H414Q367 -10 346 17T325 74Q325 90 361 192T398 345Q398 404 354 404H349Q266 404 205 306L198 293L164 158Q132 28 127 16Q114 -11 83 -11Q69 -11 59 -2T48 16Q48 30 121 320L195 616Q195 629 188 632T149 637H128Q122 643 122 645T124 664Q129 683 137 683Z"></path><path stroke-width="1" id="E21-MJMAIN-2212" d="M84 237T84 250T98 270H679Q694 262 694 250T679 230H98Q84 237 84 250Z"></path><path stroke-width="1" id="E21-MJMATHI-61" d="M33 157Q33 258 109 349T280 441Q331 441 370 392Q386 422 416 422Q429 422 439 414T449 394Q449 381 412 234T374 68Q374 43 381 35T402 26Q411 27 422 35Q443 55 463 131Q469 151 473 152Q475 153 483 153H487Q506 153 506 144Q506 138 501 117T481 63T449 13Q436 0 417 -8Q409 -10 393 -10Q359 -10 336 5T306 36L300 51Q299 52 296 50Q294 48 292 46Q233 -10 172 -10Q117 -10 75 30T33 157ZM351 328Q351 334 346 350T323 385T277 405Q242 405 210 374T160 293Q131 214 119 129Q119 126 119 118T118 106Q118 61 136 44T179 26Q217 26 254 59T298 110Q300 114 325 217T351 328Z"></path><path stroke-width="1" id="E21-MJMATHI-62" d="M73 647Q73 657 77 670T89 683Q90 683 161 688T234 694Q246 694 246 685T212 542Q204 508 195 472T180 418L176 399Q176 396 182 402Q231 442 283 442Q345 442 383 396T422 280Q422 169 343 79T173 -11Q123 -11 82 27T40 150V159Q40 180 48 217T97 414Q147 611 147 623T109 637Q104 637 101 637H96Q86 637 83 637T76 640T73 647ZM336 325V331Q336 405 275 405Q258 405 240 397T207 376T181 352T163 330L157 322L136 236Q114 150 114 114Q114 66 138 42Q154 26 178 26Q211 26 245 58Q270 81 285 114T318 219Q336 291 336 325Z"></path><path stroke-width="1" id="E21-MJMAIN-29" d="M60 749L64 750Q69 750 74 750H86L114 726Q208 641 251 514T294 250Q294 182 284 119T261 12T224 -76T186 -143T145 -194T113 -227T90 -246Q87 -249 86 -250H74Q66 -250 63 -250T58 -247T55 -238Q56 -237 66 -225Q221 -64 221 250T66 725Q56 737 55 738Q55 746 60 749Z"></path><path stroke-width="1" id="E21-MJSZ1-221A" d="M263 249Q264 249 315 130T417 -108T470 -228L725 302Q981 837 982 839Q989 850 1001 850Q1008 850 1013 844T1020 832V826L741 243Q645 43 540 -176Q479 -303 469 -324T453 -348Q449 -350 436 -350L424 -349L315 -96Q206 156 205 156L171 130Q138 104 137 104L111 130L263 249Z"></path></defs><g stroke="currentColor" fill="currentColor" stroke-width="0" transform="matrix(1 0 0 -1 0 0)"><g fill="white" stroke="white"><g fill="white" stroke="white"><g fill="white" stroke="white"><use xlink:href="#E21-MJMAIN-74"></use><use xlink:href="#E21-MJMAIN-61" x="389" y="0"></use><use xlink:href="#E21-MJMAIN-6E" x="890" y="0"></use></g><g fill="white" stroke="white"></g><g fill="white" stroke="white" transform="translate(1613,0)"><g fill="white" stroke="white"><g fill="white" stroke="white"><use xlink:href="#E21-MJMATHI-3B8"></use></g></g></g><g fill="white" stroke="white" transform="translate(2360,0)"><use xlink:href="#E21-MJMAIN-3D"></use></g><g fill="white" stroke="white" transform="translate(3416,0)"><g fill="white" stroke="white"><g fill="white" stroke="white"><use xlink:href="#E21-MJMAIN-7C"></use></g></g></g><g fill="white" stroke="white" transform="translate(3695,0)"><g transform="translate(120,0)"><rect stroke="none" width="5612" height="60" x="0" y="220"></rect><g fill="white" stroke="white" transform="translate(60,794)"><g fill="white" stroke="white"><use xlink:href="#E21-MJMAIN-32"></use></g><g fill="white" stroke="white" transform="translate(500,0)"><use xlink:href="#E21-MJSZ1-221A" x="0" y="25"></use><rect stroke="none" width="3991" height="60" x="1000" y="816"></rect><g fill="white" stroke="white" transform="translate(1000,0)"><g fill="white" stroke="white"><use xlink:href="#E21-MJMAIN-28"></use></g><g fill="white" stroke="white" transform="translate(389,0)"><g fill="white" stroke="white"><use xlink:href="#E21-MJMATHI-68"></use></g><g fill="white" stroke="white" transform="translate(576,288)"><use transform="scale(0.707)" xlink:href="#E21-MJMAIN-32"></use></g></g><g fill="white" stroke="white" transform="translate(1642,0)"><use xlink:href="#E21-MJMAIN-2212"></use></g><g fill="white" stroke="white" transform="translate(2642,0)"><use xlink:href="#E21-MJMATHI-61"></use></g><g fill="white" stroke="white" transform="translate(3172,0)"><use xlink:href="#E21-MJMATHI-62"></use></g><g fill="white" stroke="white" transform="translate(3601,0)"><use xlink:href="#E21-MJMAIN-29"></use></g></g></g></g><g fill="white" stroke="white" transform="translate(1715,-686)"><g fill="white" stroke="white"><use xlink:href="#E21-MJMATHI-61"></use></g><g fill="white" stroke="white" transform="translate(751,0)"><use xlink:href="#E21-MJMAIN-2212"></use></g><g fill="white" stroke="white" transform="translate(1752,0)"><use xlink:href="#E21-MJMATHI-62"></use></g></g></g></g><g fill="white" stroke="white" transform="translate(9547,0)"><g fill="white" stroke="white"><g fill="white" stroke="white"><use xlink:href="#E21-MJMAIN-7C"></use></g></g></g></g></g></g></svg>