<svg xmlns:xlink="http://www.w3.org/1999/xlink" width="26.549599999999998ex" height="7.433999999999999ex" viewBox="0 -1350.7 8165 2286.5" role="img" focusable="false" xmlns="http://www.w3.org/2000/svg" style="vertical-align: -2.173ex;"><defs><path stroke-width="1" id="E10-MJMAIN-74" d="M27 422Q80 426 109 478T141 600V615H181V431H316V385H181V241Q182 116 182 100T189 68Q203 29 238 29Q282 29 292 100Q293 108 293 146V181H333V146V134Q333 57 291 17Q264 -10 221 -10Q187 -10 162 2T124 33T105 68T98 100Q97 107 97 248V385H18V422H27Z"></path><path stroke-width="1" id="E10-MJMAIN-61" d="M137 305T115 305T78 320T63 359Q63 394 97 421T218 448Q291 448 336 416T396 340Q401 326 401 309T402 194V124Q402 76 407 58T428 40Q443 40 448 56T453 109V145H493V106Q492 66 490 59Q481 29 455 12T400 -6T353 12T329 54V58L327 55Q325 52 322 49T314 40T302 29T287 17T269 6T247 -2T221 -8T190 -11Q130 -11 82 20T34 107Q34 128 41 147T68 188T116 225T194 253T304 268H318V290Q318 324 312 340Q290 411 215 411Q197 411 181 410T156 406T148 403Q170 388 170 359Q170 334 154 320ZM126 106Q126 75 150 51T209 26Q247 26 276 49T315 109Q317 116 318 175Q318 233 317 233Q309 233 296 232T251 223T193 203T147 166T126 106Z"></path><path stroke-width="1" id="E10-MJMAIN-6E" d="M41 46H55Q94 46 102 60V68Q102 77 102 91T102 122T103 161T103 203Q103 234 103 269T102 328V351Q99 370 88 376T43 385H25V408Q25 431 27 431L37 432Q47 433 65 434T102 436Q119 437 138 438T167 441T178 442H181V402Q181 364 182 364T187 369T199 384T218 402T247 421T285 437Q305 442 336 442Q450 438 463 329Q464 322 464 190V104Q464 66 466 59T477 49Q498 46 526 46H542V0H534L510 1Q487 2 460 2T422 3Q319 3 310 0H302V46H318Q379 46 379 62Q380 64 380 200Q379 335 378 343Q372 371 358 385T334 402T308 404Q263 404 229 370Q202 343 195 315T187 232V168V108Q187 78 188 68T191 55T200 49Q221 46 249 46H265V0H257L234 1Q210 2 183 2T145 3Q42 3 33 0H25V46H41Z"></path><path stroke-width="1" id="E10-MJMATHI-3B8" d="M35 200Q35 302 74 415T180 610T319 704Q320 704 327 704T339 705Q393 701 423 656Q462 596 462 495Q462 380 417 261T302 66T168 -10H161Q125 -10 99 10T60 63T41 130T35 200ZM383 566Q383 668 330 668Q294 668 260 623T204 521T170 421T157 371Q206 370 254 370L351 371Q352 372 359 404T375 484T383 566ZM113 132Q113 26 166 26Q181 26 198 36T239 74T287 161T335 307L340 324H145Q145 321 136 286T120 208T113 132Z"></path><path stroke-width="1" id="E10-MJMAIN-3D" d="M56 347Q56 360 70 367H707Q722 359 722 347Q722 336 708 328L390 327H72Q56 332 56 347ZM56 153Q56 168 72 173H708Q722 163 722 153Q722 140 707 133H70Q56 140 56 153Z"></path><path stroke-width="1" id="E10-MJMATHI-6D" d="M21 287Q22 293 24 303T36 341T56 388T88 425T132 442T175 435T205 417T221 395T229 376L231 369Q231 367 232 367L243 378Q303 442 384 442Q401 442 415 440T441 433T460 423T475 411T485 398T493 385T497 373T500 364T502 357L510 367Q573 442 659 442Q713 442 746 415T780 336Q780 285 742 178T704 50Q705 36 709 31T724 26Q752 26 776 56T815 138Q818 149 821 151T837 153Q857 153 857 145Q857 144 853 130Q845 101 831 73T785 17T716 -10Q669 -10 648 17T627 73Q627 92 663 193T700 345Q700 404 656 404H651Q565 404 506 303L499 291L466 157Q433 26 428 16Q415 -11 385 -11Q372 -11 364 -4T353 8T350 18Q350 29 384 161L420 307Q423 322 423 345Q423 404 379 404H374Q288 404 229 303L222 291L189 157Q156 26 151 16Q138 -11 108 -11Q95 -11 87 -5T76 7T74 17Q74 30 112 181Q151 335 151 342Q154 357 154 369Q154 405 129 405Q107 405 92 377T69 316T57 280Q55 278 41 278H27Q21 284 21 287Z"></path><path stroke-width="1" id="E10-MJMAIN-32" d="M109 429Q82 429 66 447T50 491Q50 562 103 614T235 666Q326 666 387 610T449 465Q449 422 429 383T381 315T301 241Q265 210 201 149L142 93L218 92Q375 92 385 97Q392 99 409 186V189H449V186Q448 183 436 95T421 3V0H50V19V31Q50 38 56 46T86 81Q115 113 136 137Q145 147 170 174T204 211T233 244T261 278T284 308T305 340T320 369T333 401T340 431T343 464Q343 527 309 573T212 619Q179 619 154 602T119 569T109 550Q109 549 114 549Q132 549 151 535T170 489Q170 464 154 447T109 429Z"></path><path stroke-width="1" id="E10-MJMAIN-2212" d="M84 237T84 250T98 270H679Q694 262 694 250T679 230H98Q84 237 84 250Z"></path><path stroke-width="1" id="E10-MJMAIN-31" d="M213 578L200 573Q186 568 160 563T102 556H83V602H102Q149 604 189 617T245 641T273 663Q275 666 285 666Q294 666 302 660V361L303 61Q310 54 315 52T339 48T401 46H427V0H416Q395 3 257 3Q121 3 100 0H88V46H114Q136 46 152 46T177 47T193 50T201 52T207 57T213 61V578Z"></path></defs><g stroke="currentColor" fill="currentColor" stroke-width="0" transform="matrix(1 0 0 -1 0 0)"><g fill="white" stroke="white"><g fill="white" stroke="white"><g fill="white" stroke="white"><use xlink:href="#E10-MJMAIN-74"></use><use xlink:href="#E10-MJMAIN-61" x="389" y="0"></use><use xlink:href="#E10-MJMAIN-6E" x="890" y="0"></use></g><g fill="white" stroke="white"></g><g fill="white" stroke="white" transform="translate(1613,0)"><g fill="white" stroke="white"><g fill="white" stroke="white"><use xlink:href="#E10-MJMATHI-3B8"></use></g></g></g><g fill="white" stroke="white" transform="translate(2360,0)"><use xlink:href="#E10-MJMAIN-3D"></use></g><g fill="white" stroke="white" transform="translate(3138,0)"><g transform="translate(397,0)"><rect stroke="none" width="4508" height="60" x="0" y="220"></rect><g fill="white" stroke="white" transform="translate(310,676)"><g fill="white" stroke="white"><g fill="white" stroke="white"><use xlink:href="#E10-MJMATHI-6D"></use></g><g fill="white" stroke="white" transform="translate(878,-150)"><use transform="scale(0.707)" xlink:href="#E10-MJMAIN-32"></use></g></g><g fill="white" stroke="white" transform="translate(1554,0)"><use xlink:href="#E10-MJMAIN-2212"></use></g><g fill="white" stroke="white" transform="translate(2555,0)"><g fill="white" stroke="white"><use xlink:href="#E10-MJMATHI-6D"></use></g><g fill="white" stroke="white" transform="translate(878,-150)"><use transform="scale(0.707)" xlink:href="#E10-MJMAIN-31"></use></g></g></g><g fill="white" stroke="white" transform="translate(60,-686)"><g fill="white" stroke="white"><use xlink:href="#E10-MJMAIN-31"></use></g><g fill="white" stroke="white" transform="translate(722,0)"><use xlink:href="#E10-MJMAIN-2212"></use></g><g fill="white" stroke="white" transform="translate(1723,0)"><g fill="white" stroke="white"><use xlink:href="#E10-MJMATHI-6D"></use></g><g fill="white" stroke="white" transform="translate(878,-150)"><use transform="scale(0.707)" xlink:href="#E10-MJMAIN-31"></use></g></g><g fill="white" stroke="white" transform="translate(3055,0)"><g fill="white" stroke="white"><use xlink:href="#E10-MJMATHI-6D"></use></g><g fill="white" stroke="white" transform="translate(878,-150)"><use transform="scale(0.707)" xlink:href="#E10-MJMAIN-32"></use></g></g></g></g></g></g></g></g></svg>