<svg xmlns:xlink="http://www.w3.org/1999/xlink" width="8.675799999999999ex" height="2.8798ex" viewBox="0 -780.1 2668.1 885.9" role="img" focusable="false" xmlns="http://www.w3.org/2000/svg" style="vertical-align: -0.246ex;"><defs><path stroke-width="1" id="E6-MJMAIN-394" d="M51 0Q46 4 46 7Q46 9 215 357T388 709Q391 716 416 716Q439 716 444 709Q447 705 616 357T786 7Q786 4 781 0H51ZM507 344L384 596L137 92L383 91H630Q630 93 507 344Z"></path><path stroke-width="1" id="E6-MJMAIN-3D" d="M56 347Q56 360 70 367H707Q722 359 722 347Q722 336 708 328L390 327H72Q56 332 56 347ZM56 153Q56 168 72 173H708Q722 163 722 153Q722 140 707 133H70Q56 140 56 153Z"></path><path stroke-width="1" id="E6-MJMAIN-30" d="M96 585Q152 666 249 666Q297 666 345 640T423 548Q460 465 460 320Q460 165 417 83Q397 41 362 16T301 -15T250 -22Q224 -22 198 -16T137 16T82 83Q39 165 39 320Q39 494 96 585ZM321 597Q291 629 250 629Q208 629 178 597Q153 571 145 525T137 333Q137 175 145 125T181 46Q209 16 250 16Q290 16 318 46Q347 76 354 130T362 333Q362 478 354 524T321 597Z"></path></defs><g stroke="currentColor" fill="currentColor" stroke-width="0" transform="matrix(1 0 0 -1 0 0)"><g fill="blue" stroke="blue"><g fill="blue" stroke="blue"><g fill="blue" stroke="blue"><use xlink:href="#E6-MJMAIN-394"></use></g><g fill="blue" stroke="blue" transform="translate(1111,0)"><use xlink:href="#E6-MJMAIN-3D"></use></g><g fill="blue" stroke="blue" transform="translate(2167,0)"><use xlink:href="#E6-MJMAIN-30"></use></g></g></g></g></svg>